<?xml version="1.0" standalone="no"?>
<!DOCTYPE svg PUBLIC "-//W3C//DTD SVG 20010904//EN"
 "http://www.w3.org/TR/2001/REC-SVG-20010904/DTD/svg10.dtd">
<svg version="1.0" xmlns="http://www.w3.org/2000/svg"
 width="256.000000pt" height="256.000000pt" viewBox="0 0 256.000000 256.000000"
 preserveAspectRatio="xMidYMid meet">

<g transform="translate(0.000000,256.000000) scale(0.100000,-0.100000)"
fill="#ffffff" stroke="none">
<path d="M1169 2546 c-156 -44 -292 -187 -317 -336 l-7 -45 -105 -6 c-69 -3
-116 -11 -136 -22 -54 -28 -110 -101 -127 -164 -28 -105 -261 -1755 -253
-1796 10 -52 63 -117 121 -146 l49 -26 869 -3 c580 -1 882 1 907 8 86 23 170
120 170 195 0 16 -56 421 -126 899 -94 654 -130 880 -146 912 -26 56 -95 120
-144 133 -22 6 -76 11 -121 11 l-81 0 -11 51 c-35 163 -171 301 -332 338 -59
14 -153 12 -210 -3z m264 -101 c101 -47 180 -146 202 -252 l7 -33 -360 0 -360
0 9 41 c20 88 89 181 170 231 88 55 233 60 332 13z m480 -376 c43 -22 78 -64
91 -109 7 -25 69 -431 137 -903 l123 -859 -19 -36 c-12 -22 -37 -45 -64 -59
l-44 -23 -857 0 -857 0 -44 23 c-27 14 -52 37 -64 59 l-19 36 123 853 c67 470
127 872 133 894 13 52 52 103 92 121 41 18 1234 21 1269 3z"/>
<path d="M850 1784 c-19 -22 1 -140 35 -210 54 -109 167 -203 283 -234 72 -19
191 -14 258 11 146 54 252 173 284 319 15 68 11 110 -12 124 -32 19 -52 -5
-60 -70 -23 -182 -172 -315 -353 -316 -189 0 -339 129 -361 311 -3 31 -11 62
-16 69 -14 17 -43 15 -58 -4z"/>
</g>
</svg>
