<!-- Generated by IcoMoon.io -->
<svg version="1.1" xmlns="http://www.w3.org/2000/svg" width="1024" height="1024" viewBox="0 0 1024 1024">
<title></title>
<g id="icomoon-ignore">
</g>
<path fill="#ffa32b" d="M980.958 168.542c0-0.008 0-0.018 0-0.028 0-23.55-19.091-42.642-42.642-42.642-8.052 0-15.583 2.232-22.008 6.111l0.191-0.107c-22.992 13.938-49.551 25.497-77.672 33.303l-2.243 0.531c-38.215-32.94-88.343-53.002-143.157-53.002-0.282 0-0.563 0.001-0.844 0.002h0.044c-120.653 0.143-218.876 95.975-222.865 215.676l-0.010 0.366c-117.971-19.295-219.122-80.077-290.052-166.589l-0.659-0.829c-7.974-9.624-19.929-15.709-33.304-15.709-1.154 0-2.297 0.045-3.428 0.134l0.15-0.009c-14.371 1.218-26.596 9.404-33.391 21.129l-0.109 0.205c-18.733 32.132-29.792 70.73-29.792 111.91 0 33.149 7.166 64.624 20.032 92.961l-0.574-1.413-0.083 0.083c-12.76 7.954-21.125 21.911-21.125 37.822 0 0.033 0 0.067 0 0.1v-0.005c-0.006 0.482-0.010 1.051-0.010 1.622 0 6.040 0.413 11.983 1.211 17.804l-0.076-0.676c4.659 55.811 29.387 105.094 66.852 141.271l0.065 0.062c-3.074 5.739-4.879 12.555-4.879 19.793 0 4.66 0.748 9.145 2.131 13.341l-0.086-0.301c17.533 53.519 53.27 97.003 99.736 124.098l1.056 0.569c-34.070 13.568-73.551 21.436-114.87 21.436-13.498 0-26.8-0.84-39.856-2.47l1.558 0.159c-1.595-0.211-3.439-0.332-5.311-0.332-23.558 0-42.656 19.098-42.656 42.656 0 14.991 7.733 28.176 19.428 35.783l0.165 0.101c84.484 55.153 187.916 87.959 299.011 87.959 0.025 0 0.051 0 0.076 0h-0.004c1.824 0.022 3.979 0.035 6.137 0.035 249.34 0 459.616-167.253 524.757-395.689l0.938-3.847c14.41-46.553 22.749-100.077 22.835-155.537v-0.044c0-2.792 0-5.667-0.043-8.541 40.69-43.786 65.661-102.667 65.661-167.38 0-4.175-0.104-8.326-0.309-12.449l0.023 0.58zM839.875 305.583c-6.24 7.344-10.035 16.934-10.035 27.41 0 0.896 0.028 1.786 0.083 2.669l-0.006-0.121c0.417 7.040 0.375 14.123 0.375 20.791-0.095 46.91-7.169 92.131-20.239 134.73l0.864-3.272c-53.65 196.405-230.482 338.39-440.476 338.39-3.333 0-6.659-0.036-9.975-0.107l0.495 0.008c-0.043 0-0.093 0-0.143 0-38.569 0-76.046-4.679-111.893-13.5l3.203 0.666c48.097-15.756 89.803-38.463 126.395-67.359l-0.854 0.65c9.951-7.886 16.278-19.971 16.278-33.534 0-23.313-18.692-42.261-41.907-42.674l-0.039-0.001c-36.922-0.592-70.2-15.713-94.463-39.879l0.004 0.004q9.563-1.812 19-4.5c18.037-5.255 30.994-21.638 30.994-41.047 0-20.645-14.659-37.866-34.137-41.823l-0.274-0.047c-42.453-8.596-77.163-35.946-95.643-72.837l-0.357-0.788c6.705 0.973 14.737 1.676 22.878 1.949l0.372 0.010c0.196 0.003 0.427 0.005 0.658 0.005 19.103 0 35.334-12.297 41.209-29.407l0.091-0.306c1.275-3.867 2.010-8.318 2.010-12.941 0-14.782-7.518-27.807-18.94-35.462l-0.154-0.097c-36.839-24.797-60.751-66.342-60.751-113.471 0-0.201 0-0.401 0.001-0.602v0.031c0-2.833 0.083-5.667 0.25-8.458 92.132 86.099 214.132 141.267 348.871 148.4l1.38 0.058c0.511 0.022 1.111 0.034 1.714 0.034 13.254 0 25.125-5.923 33.111-15.266l0.050-0.060c6.163-7.349 9.906-16.907 9.906-27.341 0-3.441-0.407-6.787-1.176-9.992l0.059 0.291c-2.332-9.328-3.682-20.042-3.708-31.067v-0.017c0.083-75.998 61.67-137.584 137.66-137.667h0.008c0.108 0 0.236 0 0.364 0 39.347 0 74.787 16.726 99.599 43.456l0.079 0.086c7.758 8.329 18.789 13.523 31.032 13.523 2.922 0 5.776-0.296 8.532-0.859l-0.273 0.047c20.305-3.982 37.654-8.734 54.485-14.591l-2.776 0.841c-12.284 24.842-26.886 46.234-44.023 65.302l0.232-0.262z"></path>
</svg>
