<svg width="54" height="70" fill="none" xmlns="http://www.w3.org/2000/svg"><path d="M49.87 23.578c3.966-1.6 4.29-7.088.541-9.144L25.282.648a5.069 5.069 0 00-6.447 1.343L1.241 24.736a5.069 5.069 0 001.45 7.477l3.543 2.073a5.069 5.069 0 012.28 5.884l-6.98 22.387c-1.538 4.935 4.43 8.737 8.252 5.257l27.058-24.639c2.099-1.91 1.742-5.31-.708-6.743-3.017-1.765-2.692-6.226.55-7.534l13.184-5.32z" fill="url(#paint0_linear_10_59)"/><defs><linearGradient id="paint0_linear_10_59" x1="53.953" y1="16.164" x2="16.532" y2="-1.708" gradientUnits="userSpaceOnUse"><stop stop-color="#FF6432"/><stop offset="1" stop-color="#FFA228"/></linearGradient></defs></svg>