<!-- Generated by IcoMoon.io -->
<svg version="1.1" xmlns="http://www.w3.org/2000/svg" width="1024" height="1024" viewBox="0 0 1024 1024">
<title></title>
<g id="icomoon-ignore">
</g>
<path fill="#ffa32b" d="M739.84 232.96v0c-28.277 0-51.2 22.923-51.2 51.2s22.923 51.2 51.2 51.2c28.277 0 51.2-22.923 51.2-51.2v0c0-28.277-22.923-51.2-51.2-51.2v0zM936.107 336.213c-0.904-37.445-8.023-72.954-20.36-105.915l0.733 2.235c-11.453-29.551-28.275-54.735-49.457-75.485l-0.036-0.035c-20.63-21.334-45.873-38.070-74.135-48.614l-1.385-0.453c-30.704-11.967-66.225-19.254-103.344-20.048l-0.336-0.006c-45.227-2.56-59.733-2.56-175.787-2.56s-130.56 0-175.787 2.56c-37.455 0.799-72.976 8.086-105.807 20.777l2.127-0.723c-29.606 11.111-54.828 27.828-75.477 49.023l-0.043 0.044c-21.334 20.63-38.070 45.873-48.614 74.135l-0.453 1.385c-11.967 30.704-19.254 66.225-20.048 103.344l-0.006 0.336c-2.56 45.227-2.56 59.733-2.56 175.787s0 130.56 2.56 175.787c0.799 37.455 8.086 72.976 20.777 105.807l-0.723-2.127c10.997 29.647 27.733 54.89 49.011 75.466l0.056 0.054c20.692 21.238 45.914 37.955 74.116 48.602l1.404 0.465c30.704 11.967 66.225 19.254 103.344 20.048l0.336 0.006c45.227 2.56 59.733 2.56 175.787 2.56s130.56 0 175.787-2.56c37.455-0.799 72.976-8.086 105.807-20.777l-2.127 0.723c29.647-10.997 54.89-27.733 75.466-49.011l0.054-0.056c21.32-20.72 38.161-45.925 49.014-74.105l0.479-1.415c11.604-30.726 18.723-66.235 19.619-103.287l0.008-0.393c0-45.227 2.56-59.733 2.56-175.787s0-130.56-2.56-175.787zM859.307 682.667c-0.338 28.567-5.628 55.797-15.048 81.013l0.541-1.653c-7.189 19.266-18.101 35.665-31.96 49.029l-0.040 0.038c-13.499 13.748-29.866 24.63-48.137 31.684l-0.93 0.316c-23.562 8.879-50.792 14.169-79.213 14.505l-0.147 0.001c-42.667 2.133-58.453 2.56-170.667 2.56s-128 0-170.667-2.56c-1.362 0.027-2.967 0.043-4.577 0.043-27.985 0-54.872-4.702-79.914-13.359l1.718 0.516c-18.336-7.727-33.946-18.55-46.894-31.959l-0.039-0.041c-13.81-13.379-24.597-29.795-31.29-48.177l-0.283-0.89c-9.935-23.914-16.117-51.64-17.057-80.69l-0.010-0.377c0-42.667-2.56-58.453-2.56-170.667s0-128 2.56-170.667c0.208-29.17 5.667-57.004 15.477-82.688l-0.544 1.621c7.869-18.572 19.309-34.253 33.566-46.812l0.141-0.122c12.772-14.406 28.42-25.954 46.080-33.795l0.854-0.339c24.092-8.973 51.925-14.271 80.963-14.506l0.103-0.001c42.667 0 58.453-2.56 170.667-2.56s128 0 170.667 2.56c28.567 0.338 55.797 5.628 81.013 15.048l-1.653-0.541c20.059 7.573 37.064 19.228 50.689 34.040l0.085 0.093c13.672 12.839 24.536 28.496 31.686 46.060l0.314 0.873c9.073 24.095 14.381 51.942 14.506 81.013v0.054c2.133 42.667 2.56 58.453 2.56 170.667s-0.427 128-2.56 170.667zM512 293.12c-120.701 0.243-218.453 98.146-218.453 218.88 0 120.884 97.996 218.88 218.88 218.88s218.88-97.996 218.88-218.88v0c0-0.127 0-0.278 0-0.428 0-120.648-97.805-218.453-218.453-218.453-0.3 0-0.6 0.001-0.9 0.002h0.047zM512 654.080c-78.469 0-142.080-63.611-142.080-142.080s63.611-142.080 142.080-142.080c78.469 0 142.080 63.611 142.080 142.080v0c0 78.469-63.611 142.080-142.080 142.080v0z"></path>
</svg>
